<svg width="3433" height="741" viewBox="0 0 3433 741" fill="none" xmlns="http://www.w3.org/2000/svg">
<path d="M639.711 167.117C634.47 167.327 628.391 168.585 621.473 170.891C614.555 172.987 608.161 175.817 602.291 179.381C594.954 183.993 588.979 189.339 584.367 195.418C579.965 201.288 576.087 209.568 572.732 220.26C557.848 268.686 540.553 325.287 520.848 390.064C501.142 454.632 479.864 523.497 457.014 596.66H428.084L315.51 253.277L198.219 596.66H170.547C149.793 523.288 128.305 447.19 106.084 368.367C83.8626 289.335 68.9785 236.402 61.4316 209.568C59.5449 203.07 56.7148 197.305 52.9414 192.273C49.3776 187.242 44.4512 182.63 38.1621 178.438C32.9212 174.874 26.737 172.253 19.6094 170.576C12.6914 168.689 6.40234 167.536 0.742188 167.117V144.791H182.811V167.117C166.878 167.956 153.252 169.528 141.932 171.834C130.821 174.14 125.266 178.018 125.266 183.469C125.266 185.565 125.58 188.395 126.209 191.959C126.838 195.313 127.362 198.038 127.781 200.135C132.603 218.583 141.093 249.085 153.252 291.641C165.62 333.987 183.859 397.507 207.967 482.199L319.283 151.08H350.1L462.359 489.432C477.453 437.442 490.451 392.056 501.352 353.273C512.253 314.281 521.267 280.949 528.395 253.277C533.426 233.781 536.57 220.469 537.828 213.342C539.086 206.005 539.715 199.82 539.715 194.789C539.715 187.661 534.788 181.687 524.936 176.865C515.292 172.044 499.57 168.794 477.768 167.117V144.791H639.711V167.117ZM803.541 591H653.547V570.246C658.368 569.827 663.295 569.408 668.326 568.988C673.567 568.569 678.074 567.73 681.848 566.473C687.717 564.586 692.015 561.337 694.74 556.725C697.675 551.903 699.143 545.719 699.143 538.172V346.67C699.143 339.962 697.57 333.882 694.426 328.432C691.491 322.771 687.298 318.055 681.848 314.281C677.865 311.766 672.1 309.669 664.553 307.992C657.006 306.105 650.088 304.952 643.799 304.533V284.094L753.229 277.176L757.631 281.578V534.398C757.631 541.736 758.993 547.815 761.719 552.637C764.654 557.458 769.161 561.022 775.24 563.328C779.852 565.215 784.359 566.787 788.762 568.045C793.164 569.093 798.09 569.827 803.541 570.246V591ZM763.92 154.854C763.92 166.803 759.937 177.285 751.971 186.299C744.214 195.104 734.571 199.506 723.041 199.506C712.35 199.506 703.021 195.313 695.055 186.928C687.298 178.333 683.42 168.585 683.42 157.684C683.42 146.154 687.298 136.091 695.055 127.496C703.021 118.901 712.35 114.604 723.041 114.604C734.99 114.604 744.738 118.691 752.285 126.867C760.042 134.833 763.92 144.162 763.92 154.854ZM1170.19 591H1076.49C1060.13 567.311 1042.63 541.945 1023.97 514.902C1005.32 487.859 985.924 461.55 965.799 435.975L940.014 460.188V533.77C940.014 541.316 941.376 547.605 944.102 552.637C946.827 557.458 951.229 561.022 957.309 563.328C962.34 565.424 967.161 566.997 971.773 568.045C976.385 569.093 981.731 569.827 987.811 570.246V591H835.615V570.246C840.437 569.827 845.468 569.408 850.709 568.988C855.95 568.359 860.352 567.521 863.916 566.473C869.786 564.586 874.188 561.337 877.123 556.725C880.058 551.903 881.525 545.719 881.525 538.172V177.809C881.525 170.052 879.848 162.82 876.494 156.111C873.35 149.193 869.157 143.952 863.916 140.389C859.514 137.035 852.596 134.833 843.162 133.785C833.938 132.737 826.496 132.003 820.836 131.584V111.459L935.611 104.227L940.014 108.943V436.918C956.365 420.566 973.975 403.062 992.842 384.404C1011.92 365.537 1027.96 348.766 1040.95 334.092C1042.63 332.205 1044.41 329.794 1046.3 326.859C1048.4 323.715 1049.44 321.199 1049.44 319.312C1049.44 313.652 1044.83 309.46 1035.61 306.734C1026.59 304.009 1017.89 302.122 1009.51 301.074V280.949H1145.98V300.445C1128.37 305.686 1112.75 312.29 1099.13 320.256C1085.71 328.012 1075.44 335.035 1068.31 341.324C1063.28 345.517 1056.15 352.33 1046.93 361.764C1037.7 371.197 1024.81 383.566 1008.25 398.869C1025.44 420.042 1044.73 445.408 1066.11 474.967C1087.7 504.525 1103.42 525.908 1113.28 539.115C1122.5 551.484 1130.78 559.555 1138.12 563.328C1145.46 567.102 1156.15 569.408 1170.19 570.246V591ZM1337.48 591H1187.49V570.246C1192.31 569.827 1197.24 569.408 1202.27 568.988C1207.51 568.569 1212.02 567.73 1215.79 566.473C1221.66 564.586 1225.96 561.337 1228.68 556.725C1231.62 551.903 1233.08 545.719 1233.08 538.172V346.67C1233.08 339.962 1231.51 333.882 1228.37 328.432C1225.43 322.771 1221.24 318.055 1215.79 314.281C1211.81 311.766 1206.04 309.669 1198.49 307.992C1190.95 306.105 1184.03 304.952 1177.74 304.533V284.094L1287.17 277.176L1291.57 281.578V534.398C1291.57 541.736 1292.93 547.815 1295.66 552.637C1298.6 557.458 1303.1 561.022 1309.18 563.328C1313.79 565.215 1318.3 566.787 1322.7 568.045C1327.11 569.093 1332.03 569.827 1337.48 570.246V591ZM1297.86 154.854C1297.86 166.803 1293.88 177.285 1285.91 186.299C1278.16 195.104 1268.51 199.506 1256.98 199.506C1246.29 199.506 1236.96 195.313 1229 186.928C1221.24 178.333 1217.36 168.585 1217.36 157.684C1217.36 146.154 1221.24 136.091 1229 127.496C1236.96 118.901 1246.29 114.604 1256.98 114.604C1268.93 114.604 1278.68 118.691 1286.23 126.867C1293.98 134.833 1297.86 144.162 1297.86 154.854Z" fill="black"/>
<path d="M1475.17 133.012H1659.44C1695.91 133.012 1723.06 134.584 1740.88 137.729C1758.91 140.663 1774.95 146.952 1788.99 156.596C1803.25 166.239 1815.09 179.132 1824.53 195.273C1833.96 211.206 1838.68 229.13 1838.68 249.045C1838.68 270.637 1832.81 290.448 1821.07 308.477C1809.54 326.505 1793.81 340.027 1773.9 349.041C1801.99 357.217 1823.58 371.158 1838.68 390.863C1853.77 410.569 1861.32 433.734 1861.32 460.357C1861.32 481.321 1856.39 501.76 1846.54 521.676C1836.89 541.382 1823.58 557.209 1806.6 569.158C1789.83 580.898 1769.08 588.13 1744.34 590.855C1728.83 592.533 1691.41 593.581 1632.08 594H1475.17V133.012ZM1568.25 209.738V316.338H1629.25C1665.52 316.338 1688.05 315.814 1696.86 314.766C1712.79 312.879 1725.26 307.428 1734.28 298.414C1743.5 289.19 1748.11 277.136 1748.11 262.252C1748.11 247.997 1744.13 236.467 1736.16 227.662C1728.41 218.648 1716.77 213.197 1701.26 211.311C1692.04 210.262 1665.52 209.738 1621.7 209.738H1568.25ZM1568.25 393.064V516.33H1654.41C1687.95 516.33 1709.23 515.387 1718.24 513.5C1732.08 510.984 1743.29 504.905 1751.89 495.262C1760.69 485.409 1765.09 472.307 1765.09 455.955C1765.09 442.119 1761.74 430.38 1755.03 420.736C1748.32 411.093 1738.57 404.07 1725.79 399.668C1713.21 395.266 1685.75 393.064 1643.4 393.064H1568.25ZM2159.42 594V544.002C2147.26 561.821 2131.22 575.867 2111.31 586.139C2091.6 596.411 2070.74 601.547 2048.73 601.547C2026.3 601.547 2006.17 596.62 1988.36 586.768C1970.54 576.915 1957.64 563.079 1949.68 545.26C1941.71 527.441 1937.73 502.809 1937.73 471.363V260.051H2026.09V413.504C2026.09 460.462 2027.66 489.287 2030.81 499.979C2034.16 510.46 2040.14 518.846 2048.73 525.135C2057.33 531.214 2068.23 534.254 2081.43 534.254C2096.53 534.254 2110.05 530.166 2122 521.99C2133.95 513.605 2142.12 503.333 2146.53 491.174C2150.93 478.805 2153.13 448.723 2153.13 400.926V260.051H2241.49V594H2159.42ZM2639.59 594H2557.52V544.945C2543.89 564.022 2527.75 578.277 2509.09 587.711C2490.64 596.935 2471.98 601.547 2453.12 601.547C2414.75 601.547 2381.84 586.139 2354.38 555.322C2327.13 524.296 2313.5 481.111 2313.5 425.768C2313.5 369.166 2326.81 326.191 2353.44 296.842C2380.06 267.283 2413.71 252.504 2454.38 252.504C2491.69 252.504 2523.97 268.017 2551.23 299.043V133.012H2639.59V594ZM2403.75 419.793C2403.75 455.431 2408.67 481.216 2418.53 497.148C2432.78 520.208 2452.7 531.738 2478.27 531.738C2498.61 531.738 2515.9 523.143 2530.16 505.953C2544.41 488.553 2551.54 462.663 2551.54 428.283C2551.54 389.92 2544.62 362.353 2530.79 345.582C2516.95 328.602 2499.24 320.111 2477.64 320.111C2456.68 320.111 2439.07 328.497 2424.82 345.268C2410.77 361.829 2403.75 386.671 2403.75 419.793ZM3033.28 594H2951.21V544.945C2937.58 564.022 2921.44 578.277 2902.79 587.711C2884.34 596.935 2865.68 601.547 2846.81 601.547C2808.45 601.547 2775.54 586.139 2748.07 555.322C2720.82 524.296 2707.2 481.111 2707.2 425.768C2707.2 369.166 2720.51 326.191 2747.13 296.842C2773.75 267.283 2807.4 252.504 2848.07 252.504C2885.39 252.504 2917.67 268.017 2944.92 299.043V133.012H3033.28V594ZM2797.44 419.793C2797.44 455.431 2802.37 481.216 2812.22 497.148C2826.48 520.208 2846.39 531.738 2871.97 531.738C2892.3 531.738 2909.6 523.143 2923.85 505.953C2938.11 488.553 2945.24 462.663 2945.24 428.283C2945.24 389.92 2938.32 362.353 2924.48 345.582C2910.65 328.602 2892.93 320.111 2871.34 320.111C2850.38 320.111 2832.77 328.497 2818.51 345.268C2804.47 361.829 2797.44 386.671 2797.44 419.793ZM3078.88 260.051H3172.9L3252.77 497.148L3330.76 260.051H3422.26L3304.34 581.422L3283.27 639.596C3275.52 659.092 3268.07 673.976 3260.95 684.248C3254.03 694.52 3245.96 702.801 3236.73 709.09C3227.72 715.589 3216.5 720.62 3203.09 724.184C3189.88 727.747 3174.89 729.529 3158.12 729.529C3141.14 729.529 3124.47 727.747 3108.12 724.184L3100.26 655.004C3114.1 657.729 3126.57 659.092 3137.68 659.092C3158.23 659.092 3173.42 653.012 3183.28 640.854C3193.13 628.904 3200.68 613.601 3205.92 594.943L3078.88 260.051Z" fill="#5586E8"/>
</svg>
