<svg width="1100" height="1100" viewBox="0 0 1100 1100" fill="none" xmlns="http://www.w3.org/2000/svg">
<path d="M1060.92 610.513C1060.92 644.531 1058.86 670.033 1056.41 688.27C1053.24 712.038 1036.6 731.829 1013.79 739.207C999.316 743.893 984.661 747.847 973.126 750.742C925.681 907.518 754.228 940.263 549.996 940.263C345.776 940.263 174.324 907.518 126.867 750.742C115.332 747.847 100.678 743.893 86.2025 739.207C63.3925 731.829 46.7555 712.038 43.5785 688.27C41.1345 670.033 39.0725 644.531 39.0725 610.513C39.0725 576.022 40.8185 551.162 42.9925 533.567C45.9665 509.54 62.6715 489.456 85.7065 481.977C100.744 477.088 116.063 472.977 127.868 470.026C176.698 291.51 347.183 159.742 549.995 159.742C752.807 159.742 923.292 291.511 972.122 470.026C983.927 472.977 999.247 477.089 1014.28 481.977C1037.32 489.456 1054.02 509.541 1057 533.567C1059.17 551.162 1060.92 576.022 1060.92 610.513Z" fill="white"/>
<path d="M550.001 945.641C483.038 945.641 427.235 942.061 379.404 934.695C322.904 925.995 277.003 912.072 239.076 892.13C197.121 870.07 164.947 840.043 143.447 802.884C120.222 762.744 108.447 712.587 108.447 653.804V574.954C108.447 518.143 120.135 463.031 143.187 411.149C165.443 361.058 197.298 316.077 237.87 277.456C278.422 238.853 325.64 208.546 378.213 187.378C432.628 165.468 490.426 154.359 550.001 154.359C609.576 154.359 667.374 165.468 721.789 187.378C774.362 208.546 821.58 238.853 862.132 277.456C902.703 316.077 934.559 361.058 956.815 411.149C979.867 463.031 991.555 518.143 991.555 574.954V653.804C991.555 712.587 979.78 762.744 956.555 802.884C935.055 840.043 902.881 870.07 860.926 892.13C822.999 912.072 777.098 925.995 720.598 934.695C672.767 942.061 616.964 945.641 550.001 945.641ZM550.001 165.123C491.81 165.123 435.364 175.97 382.233 197.363C330.927 218.02 284.853 247.591 245.291 285.252C205.748 322.896 174.704 366.724 153.024 415.519C130.586 466.016 119.211 519.658 119.211 574.953V653.803C119.211 763.579 160.058 838.42 244.086 882.602C311.914 918.266 409.12 934.877 550.001 934.877C690.882 934.877 788.088 918.266 855.916 882.602C939.944 838.42 980.791 763.579 980.791 653.803V574.953C980.791 519.658 969.415 466.016 946.978 415.519C925.298 366.724 894.254 322.895 854.711 285.252C815.148 247.591 769.073 218.021 717.768 197.363C664.637 175.97 608.192 165.123 550.001 165.123Z" fill="black"/>
<path d="M878.71 633.888C878.71 798.987 731.545 830.22 549.998 830.22C368.461 830.22 221.286 798.987 221.286 633.888C221.286 468.78 368.461 437.547 549.998 437.547C731.545 437.547 878.71 468.78 878.71 633.888Z" fill="#6D9DFD"/>
<path d="M549.997 860.303C434.919 860.303 355.21 847.151 299.147 818.913C265.168 801.798 239.1 778.485 221.666 749.621C202.83 718.437 193.28 679.499 193.28 633.888C193.28 588.274 202.83 549.334 221.666 518.149C239.101 489.284 265.169 465.97 299.147 448.855C355.21 420.616 434.918 407.463 549.997 407.463C665.079 407.463 744.791 420.615 800.852 448.855C834.83 465.97 860.898 489.284 878.331 518.149C897.165 549.334 906.715 588.274 906.715 633.888C906.715 679.5 897.165 718.438 878.331 749.621C860.897 778.485 834.829 801.798 800.852 818.913C744.791 847.152 665.079 860.303 549.997 860.303ZM549.997 418.227C436.663 418.227 358.493 431.014 303.989 458.468C236.736 492.343 204.044 549.724 204.044 633.888C204.044 718.048 236.736 775.425 303.989 809.299C358.494 836.752 436.664 849.539 549.997 849.539C663.334 849.539 741.508 836.752 796.011 809.299C863.261 775.425 895.952 718.048 895.952 633.888C895.952 549.723 863.261 492.343 796.011 458.468C741.508 431.014 663.334 418.227 549.997 418.227Z" fill="black"/>
<path d="M126.873 756.208C126.433 756.208 125.985 756.155 125.539 756.042C110.558 752.282 96.7576 748.367 84.5216 744.406C59.7916 736.407 41.5946 714.656 38.1656 688.994C35.1436 666.45 33.6106 640.044 33.6106 610.514C33.6106 580.286 34.9436 554.173 37.5716 532.898C40.7866 506.926 59.0186 484.899 84.0206 476.781C96.6006 472.692 110.909 468.635 126.545 464.726C129.469 463.992 132.439 465.774 133.171 468.701C133.902 471.628 132.123 474.595 129.195 475.326C113.802 479.175 99.7386 483.161 87.3966 487.173C66.4116 493.987 51.1106 512.461 48.4156 534.238C45.8426 555.069 44.5376 580.731 44.5376 610.513C44.5376 639.56 46.0366 665.477 48.9946 687.544C51.8706 709.059 67.1366 727.297 87.8856 734.008C99.8906 737.894 113.453 741.741 128.199 745.442C131.126 746.176 132.903 749.145 132.168 752.071C131.546 754.553 129.319 756.208 126.873 756.208Z" fill="black"/>
<path d="M973.128 756.207C970.682 756.207 968.455 754.552 967.833 752.072C967.098 749.145 968.875 746.177 971.802 745.443C986.547 741.742 1000.11 737.896 1012.11 734.009C1032.86 727.298 1048.13 709.06 1051.01 687.547C1053.96 665.478 1055.46 639.561 1055.46 610.514C1055.46 580.732 1054.16 555.07 1051.58 534.238C1048.89 512.462 1033.59 493.988 1012.61 487.175C1000.26 483.162 986.198 479.176 970.805 475.327C967.877 474.595 966.098 471.629 966.829 468.702C967.561 465.775 970.524 463.994 973.455 464.727C989.092 468.637 1003.4 472.693 1015.98 476.783C1040.98 484.901 1059.21 506.927 1062.43 532.898C1065.06 554.173 1066.39 580.287 1066.39 610.515C1066.39 640.046 1064.86 666.451 1061.83 688.998C1058.4 714.658 1040.21 736.408 1015.48 744.407C1003.24 748.368 989.444 752.282 974.462 756.043C974.017 756.153 973.568 756.207 973.128 756.207Z" fill="black"/>
<path d="M385.311 700.673C360.919 700.673 341.145 680.899 341.145 656.507V603.607C341.145 579.215 360.919 559.441 385.311 559.441C409.703 559.441 429.477 579.215 429.477 603.607V656.507C429.477 680.899 409.703 700.673 385.311 700.673Z" fill="white"/>
<path d="M714.686 700.673C690.294 700.673 670.52 680.899 670.52 656.507V603.607C670.52 579.215 690.294 559.441 714.686 559.441C739.078 559.441 758.851 579.215 758.851 603.607V656.507C758.851 680.899 739.078 700.673 714.686 700.673Z" fill="white"/>
</svg>
