<svg width="4507" height="1008" viewBox="0 0 4507 1008" fill="none" xmlns="http://www.w3.org/2000/svg">
<path d="M972.189 559.453C972.189 590.626 970.299 613.995 968.06 630.707C965.148 652.487 949.903 670.623 929.001 677.384C915.736 681.678 902.308 685.301 891.738 687.954C848.261 831.618 691.147 861.624 503.997 861.624C316.857 861.624 159.744 831.618 116.256 687.954C105.685 685.301 92.257 681.678 78.9927 677.384C58.0904 670.623 42.8448 652.487 39.9336 630.707C37.694 613.995 35.8044 590.626 35.8044 559.453C35.8044 527.847 37.4044 505.066 39.3966 488.942C42.1218 466.925 57.4297 448.521 78.5381 441.667C92.3184 437.187 106.356 433.42 117.174 430.716C161.92 267.13 318.146 146.383 503.996 146.383C689.845 146.383 846.071 267.131 890.817 430.716C901.635 433.42 915.673 437.188 929.453 441.667C950.562 448.521 965.87 466.926 968.595 488.942C970.589 505.066 972.189 527.847 972.189 559.453Z" fill="white"/>
<path d="M504 866.551C442.638 866.551 391.502 863.271 347.671 856.521C295.897 848.548 253.835 835.79 219.08 817.516C180.634 797.301 151.151 769.785 131.449 735.734C110.166 698.951 99.3762 652.989 99.3762 599.122V526.867C99.3762 474.808 110.087 424.305 131.211 376.762C151.605 330.861 180.796 289.642 217.975 254.251C255.135 218.876 298.404 191.104 346.58 171.707C396.444 151.629 449.408 141.449 504 141.449C558.593 141.449 611.557 151.629 661.421 171.707C709.597 191.104 752.865 218.876 790.026 254.251C827.204 289.642 856.395 330.861 876.79 376.762C897.914 424.305 908.624 474.808 908.624 526.867V599.122C908.624 652.989 897.834 698.951 876.552 735.734C856.85 769.785 827.367 797.301 788.921 817.516C754.166 835.79 712.104 848.548 660.329 856.521C616.499 863.271 565.363 866.551 504 866.551ZM504 151.313C450.676 151.313 398.951 161.253 350.264 180.857C303.249 199.786 261.028 226.884 224.775 261.395C188.539 295.89 160.092 336.053 140.225 380.767C119.664 427.04 109.24 476.196 109.24 526.866V599.122C109.24 699.716 146.671 768.298 223.671 808.785C285.826 841.466 374.902 856.688 504 856.688C633.098 856.688 722.175 841.466 784.33 808.785C861.33 768.298 898.761 699.716 898.761 599.122V526.866C898.761 476.196 888.336 427.04 867.776 380.767C847.909 336.053 819.461 295.889 783.225 261.395C746.971 226.884 704.751 199.787 657.737 180.857C609.049 161.253 557.324 151.313 504 151.313Z" fill="black"/>
<path d="M805.218 580.873C805.218 732.164 670.361 760.784 503.998 760.784C337.644 760.784 202.778 732.164 202.778 580.873C202.778 429.574 337.644 400.953 503.998 400.953C670.361 400.953 805.218 429.574 805.218 580.873Z" fill="#5586E8"/>
<path d="M503.998 788.349C398.544 788.349 325.501 776.297 274.127 750.421C242.99 734.737 219.102 713.374 203.126 686.924C185.866 658.348 177.114 622.667 177.114 580.87C177.114 539.071 185.866 503.388 203.126 474.811C219.103 448.361 242.991 426.996 274.127 411.313C325.501 385.436 398.543 373.383 503.998 373.383C609.455 373.383 682.499 385.435 733.871 411.313C765.007 426.996 788.895 448.361 804.87 474.811C822.129 503.388 830.88 539.071 830.88 580.87C830.88 622.668 822.129 658.349 804.87 686.924C788.894 713.374 765.006 734.737 733.871 750.421C682.499 776.298 609.455 788.349 503.998 788.349ZM503.998 383.247C400.142 383.247 328.509 394.964 278.564 420.122C216.936 451.164 186.978 503.746 186.978 580.87C186.978 657.992 216.936 710.57 278.564 741.611C328.51 766.768 400.143 778.485 503.998 778.485C607.856 778.485 679.49 766.768 729.435 741.611C791.06 710.57 821.017 657.992 821.017 580.87C821.017 503.745 791.06 451.164 729.435 420.122C679.49 394.964 607.856 383.247 503.998 383.247Z" fill="black"/>
<path d="M116.261 692.96C115.858 692.96 115.448 692.911 115.039 692.808C101.311 689.362 88.6652 685.775 77.4526 682.145C54.7909 674.815 38.1158 654.883 34.9736 631.367C32.2043 610.709 30.7996 586.511 30.7996 559.451C30.7996 531.751 32.0211 507.822 34.4293 488.327C37.3754 464.527 54.0826 444.342 76.9935 436.903C88.5213 433.156 101.633 429.438 115.961 425.856C118.64 425.184 121.362 426.817 122.033 429.499C122.703 432.181 121.072 434.9 118.389 435.57C104.284 439.097 91.3969 442.75 80.0871 446.426C60.8572 452.67 46.8359 469.599 44.3663 489.555C42.0085 508.643 40.8127 532.159 40.8127 559.45C40.8127 586.068 42.1863 609.817 44.8969 630.039C47.5324 649.754 61.5216 666.467 80.5352 672.617C91.5362 676.178 103.964 679.703 117.477 683.094C120.159 683.767 121.787 686.488 121.114 689.169C120.544 691.443 118.503 692.96 116.261 692.96Z" fill="black"/>
<path d="M891.74 692.962C889.498 692.962 887.457 691.445 886.887 689.173C886.214 686.49 887.842 683.771 890.524 683.098C904.036 679.706 916.465 676.182 927.465 672.62C946.479 666.471 960.469 649.758 963.104 630.044C965.815 609.821 967.188 586.071 967.188 559.454C967.188 532.163 965.992 508.647 963.634 489.557C961.165 469.603 947.144 452.674 927.915 446.431C916.603 442.753 903.716 439.101 889.611 435.573C886.928 434.903 885.297 432.185 885.967 429.503C886.638 426.82 889.353 425.188 892.039 425.86C906.368 429.443 919.479 433.16 931.008 436.908C953.917 444.347 970.625 464.531 973.57 488.329C975.979 507.825 977.201 531.755 977.201 559.455C977.201 586.516 975.797 610.713 973.026 631.374C969.883 654.888 953.209 674.819 930.547 682.149C919.336 685.778 906.69 689.365 892.961 692.811C892.553 692.912 892.143 692.962 891.74 692.962Z" fill="black"/>
<path d="M353.084 642.072C330.732 642.072 312.612 623.952 312.612 601.6V553.124C312.612 530.773 330.732 512.652 353.084 512.652C375.436 512.652 393.557 530.773 393.557 553.124V601.6C393.557 623.952 375.436 642.072 353.084 642.072Z" fill="white"/>
<path d="M654.912 642.072C632.56 642.072 614.44 623.952 614.44 601.6V553.124C614.44 530.773 632.56 512.652 654.912 512.652C677.264 512.652 695.384 530.773 695.384 553.124V601.6C695.384 623.952 677.264 642.072 654.912 642.072Z" fill="white"/>
<path d="M1713.71 300.617C1708.47 300.827 1702.39 302.085 1695.47 304.391C1688.55 306.487 1682.16 309.317 1676.29 312.881C1668.95 317.493 1662.98 322.839 1658.37 328.918C1653.96 334.788 1650.09 343.068 1646.73 353.76C1631.85 402.186 1614.55 458.787 1594.85 523.564C1575.14 588.132 1553.86 656.997 1531.01 730.16H1502.08L1389.51 386.777L1272.22 730.16H1244.55C1223.79 656.788 1202.31 580.69 1180.08 501.867C1157.86 422.835 1142.98 369.902 1135.43 343.068C1133.54 336.57 1130.71 330.805 1126.94 325.773C1123.38 320.742 1118.45 316.13 1112.16 311.938C1106.92 308.374 1100.74 305.753 1093.61 304.076C1086.69 302.189 1080.4 301.036 1074.74 300.617V278.291H1256.81V300.617C1240.88 301.456 1227.25 303.028 1215.93 305.334C1204.82 307.64 1199.27 311.518 1199.27 316.969C1199.27 319.065 1199.58 321.895 1200.21 325.459C1200.84 328.813 1201.36 331.538 1201.78 333.635C1206.6 352.083 1215.09 382.585 1227.25 425.141C1239.62 467.487 1257.86 531.007 1281.97 615.699L1393.28 284.58H1424.1L1536.36 622.932C1551.45 570.942 1564.45 525.556 1575.35 486.773C1586.25 447.781 1595.27 414.449 1602.39 386.777C1607.43 367.281 1610.57 353.969 1611.83 346.842C1613.09 339.505 1613.71 333.32 1613.71 328.289C1613.71 321.161 1608.79 315.187 1598.94 310.365C1589.29 305.544 1573.57 302.294 1551.77 300.617V278.291H1713.71V300.617ZM1877.54 724.5H1727.55V703.746C1732.37 703.327 1737.29 702.908 1742.33 702.488C1747.57 702.069 1752.07 701.23 1755.85 699.973C1761.72 698.086 1766.01 694.837 1768.74 690.225C1771.68 685.403 1773.14 679.219 1773.14 671.672V480.17C1773.14 473.462 1771.57 467.382 1768.43 461.932C1765.49 456.271 1761.3 451.555 1755.85 447.781C1751.86 445.266 1746.1 443.169 1738.55 441.492C1731.01 439.605 1724.09 438.452 1717.8 438.033V417.594L1827.23 410.676L1831.63 415.078V667.898C1831.63 675.236 1832.99 681.315 1835.72 686.137C1838.65 690.958 1843.16 694.522 1849.24 696.828C1853.85 698.715 1858.36 700.287 1862.76 701.545C1867.16 702.593 1872.09 703.327 1877.54 703.746V724.5ZM1837.92 288.354C1837.92 300.303 1833.94 310.785 1825.97 319.799C1818.21 328.604 1808.57 333.006 1797.04 333.006C1786.35 333.006 1777.02 328.813 1769.05 320.428C1761.3 311.833 1757.42 302.085 1757.42 291.184C1757.42 279.654 1761.3 269.591 1769.05 260.996C1777.02 252.401 1786.35 248.104 1797.04 248.104C1808.99 248.104 1818.74 252.191 1826.29 260.367C1834.04 268.333 1837.92 277.662 1837.92 288.354ZM2244.19 724.5H2150.49C2134.13 700.811 2116.63 675.445 2097.97 648.402C2079.32 621.359 2059.92 595.05 2039.8 569.475L2014.01 593.688V667.27C2014.01 674.816 2015.38 681.105 2018.1 686.137C2020.83 690.958 2025.23 694.522 2031.31 696.828C2036.34 698.924 2041.16 700.497 2045.77 701.545C2050.39 702.593 2055.73 703.327 2061.81 703.746V724.5H1909.62V703.746C1914.44 703.327 1919.47 702.908 1924.71 702.488C1929.95 701.859 1934.35 701.021 1937.92 699.973C1943.79 698.086 1948.19 694.837 1951.12 690.225C1954.06 685.403 1955.53 679.219 1955.53 671.672V311.309C1955.53 303.552 1953.85 296.32 1950.49 289.611C1947.35 282.693 1943.16 277.452 1937.92 273.889C1933.51 270.535 1926.6 268.333 1917.16 267.285C1907.94 266.237 1900.5 265.503 1894.84 265.084V244.959L2009.61 237.727L2014.01 242.443V570.418C2030.37 554.066 2047.97 536.562 2066.84 517.904C2085.92 499.037 2101.96 482.266 2114.95 467.592C2116.63 465.705 2118.41 463.294 2120.3 460.359C2122.4 457.215 2123.44 454.699 2123.44 452.812C2123.44 447.152 2118.83 442.96 2109.61 440.234C2100.59 437.509 2091.89 435.622 2083.51 434.574V414.449H2219.98V433.945C2202.37 439.186 2186.75 445.79 2173.13 453.756C2159.71 461.512 2149.44 468.535 2142.31 474.824C2137.28 479.017 2130.15 485.83 2120.93 495.264C2111.7 504.697 2098.81 517.066 2082.25 532.369C2099.44 553.542 2118.73 578.908 2140.11 608.467C2161.7 638.025 2177.42 659.408 2187.28 672.615C2196.5 684.984 2204.78 693.055 2212.12 696.828C2219.46 700.602 2230.15 702.908 2244.19 703.746V724.5ZM2411.48 724.5H2261.49V703.746C2266.31 703.327 2271.24 702.908 2276.27 702.488C2281.51 702.069 2286.02 701.23 2289.79 699.973C2295.66 698.086 2299.96 694.837 2302.68 690.225C2305.62 685.403 2307.08 679.219 2307.08 671.672V480.17C2307.08 473.462 2305.51 467.382 2302.37 461.932C2299.43 456.271 2295.24 451.555 2289.79 447.781C2285.81 445.266 2280.04 443.169 2272.49 441.492C2264.95 439.605 2258.03 438.452 2251.74 438.033V417.594L2361.17 410.676L2365.57 415.078V667.898C2365.57 675.236 2366.93 681.315 2369.66 686.137C2372.6 690.958 2377.1 694.522 2383.18 696.828C2387.79 698.715 2392.3 700.287 2396.7 701.545C2401.11 702.593 2406.03 703.327 2411.48 703.746V724.5ZM2371.86 288.354C2371.86 300.303 2367.88 310.785 2359.91 319.799C2352.16 328.604 2342.51 333.006 2330.98 333.006C2320.29 333.006 2310.96 328.813 2303 320.428C2295.24 311.833 2291.36 302.085 2291.36 291.184C2291.36 279.654 2295.24 269.591 2303 260.996C2310.96 252.401 2320.29 248.104 2330.98 248.104C2342.93 248.104 2352.68 252.191 2360.23 260.367C2367.98 268.333 2371.86 277.662 2371.86 288.354Z" fill="black"/>
<path d="M2549.17 266.512H2733.44C2769.91 266.512 2797.06 268.084 2814.88 271.229C2832.91 274.163 2848.95 280.452 2862.99 290.096C2877.25 299.739 2889.09 312.632 2898.53 328.773C2907.96 344.706 2912.68 362.63 2912.68 382.545C2912.68 404.137 2906.81 423.948 2895.07 441.977C2883.54 460.005 2867.81 473.527 2847.9 482.541C2875.99 490.717 2897.58 504.658 2912.68 524.363C2927.77 544.069 2935.32 567.234 2935.32 593.857C2935.32 614.821 2930.39 635.26 2920.54 655.176C2910.89 674.882 2897.58 690.709 2880.6 702.658C2863.83 714.398 2843.08 721.63 2818.34 724.355C2802.83 726.033 2765.41 727.081 2706.08 727.5H2549.17V266.512ZM2642.25 343.238V449.838H2703.25C2739.52 449.838 2762.05 449.314 2770.86 448.266C2786.79 446.379 2799.26 440.928 2808.28 431.914C2817.5 422.69 2822.11 410.636 2822.11 395.752C2822.11 381.497 2818.13 369.967 2810.16 361.162C2802.41 352.148 2790.77 346.697 2775.26 344.811C2766.04 343.762 2739.52 343.238 2695.7 343.238H2642.25ZM2642.25 526.564V649.83H2728.41C2761.95 649.83 2783.23 648.887 2792.24 647C2806.08 644.484 2817.29 638.405 2825.89 628.762C2834.69 618.909 2839.09 605.807 2839.09 589.455C2839.09 575.619 2835.74 563.88 2829.03 554.236C2822.32 544.593 2812.57 537.57 2799.79 533.168C2787.21 528.766 2759.75 526.564 2717.4 526.564H2642.25ZM3233.42 727.5V677.502C3221.26 695.321 3205.22 709.367 3185.31 719.639C3165.6 729.911 3144.74 735.047 3122.73 735.047C3100.3 735.047 3080.17 730.12 3062.36 720.268C3044.54 710.415 3031.64 696.579 3023.68 678.76C3015.71 660.941 3011.73 636.309 3011.73 604.863V393.551H3100.09V547.004C3100.09 593.962 3101.66 622.787 3104.81 633.479C3108.16 643.96 3114.14 652.346 3122.73 658.635C3131.33 664.714 3142.23 667.754 3155.43 667.754C3170.53 667.754 3184.05 663.666 3196 655.49C3207.95 647.105 3216.12 636.833 3220.53 624.674C3224.93 612.305 3227.13 582.223 3227.13 534.426V393.551H3315.49V727.5H3233.42ZM3713.59 727.5H3631.52V678.445C3617.89 697.522 3601.75 711.777 3583.09 721.211C3564.64 730.435 3545.98 735.047 3527.12 735.047C3488.75 735.047 3455.84 719.639 3428.38 688.822C3401.13 657.796 3387.5 614.611 3387.5 559.268C3387.5 502.666 3400.81 459.691 3427.44 430.342C3454.06 400.783 3487.71 386.004 3528.38 386.004C3565.69 386.004 3597.97 401.517 3625.23 432.543V266.512H3713.59V727.5ZM3477.75 553.293C3477.75 588.931 3482.67 614.716 3492.53 630.648C3506.78 653.708 3526.7 665.238 3552.27 665.238C3572.61 665.238 3589.9 656.643 3604.16 639.453C3618.41 622.053 3625.54 596.163 3625.54 561.783C3625.54 523.42 3618.62 495.853 3604.79 479.082C3590.95 462.102 3573.24 453.611 3551.64 453.611C3530.68 453.611 3513.07 461.997 3498.82 478.768C3484.77 495.329 3477.75 520.171 3477.75 553.293ZM4107.28 727.5H4025.21V678.445C4011.58 697.522 3995.44 711.777 3976.79 721.211C3958.34 730.435 3939.68 735.047 3920.81 735.047C3882.45 735.047 3849.54 719.639 3822.07 688.822C3794.82 657.796 3781.2 614.611 3781.2 559.268C3781.2 502.666 3794.51 459.691 3821.13 430.342C3847.75 400.783 3881.4 386.004 3922.07 386.004C3959.39 386.004 3991.67 401.517 4018.92 432.543V266.512H4107.28V727.5ZM3871.44 553.293C3871.44 588.931 3876.37 614.716 3886.22 630.648C3900.48 653.708 3920.39 665.238 3945.97 665.238C3966.3 665.238 3983.6 656.643 3997.85 639.453C4012.11 622.053 4019.24 596.163 4019.24 561.783C4019.24 523.42 4012.32 495.853 3998.48 479.082C3984.65 462.102 3966.93 453.611 3945.34 453.611C3924.38 453.611 3906.77 461.997 3892.51 478.768C3878.47 495.329 3871.44 520.171 3871.44 553.293ZM4152.88 393.551H4246.9L4326.77 630.648L4404.76 393.551H4496.26L4378.34 714.922L4357.27 773.096C4349.52 792.592 4342.07 807.476 4334.95 817.748C4328.03 828.02 4319.96 836.301 4310.73 842.59C4301.72 849.089 4290.5 854.12 4277.09 857.684C4263.88 861.247 4248.89 863.029 4232.12 863.029C4215.14 863.029 4198.47 861.247 4182.12 857.684L4174.26 788.504C4188.1 791.229 4200.57 792.592 4211.68 792.592C4232.23 792.592 4247.42 786.512 4257.28 774.354C4267.13 762.404 4274.68 747.101 4279.92 728.443L4152.88 393.551Z" fill="#5586E8"/>
</svg>
